<svg width="17" height="16" viewBox="0 0 17 16" fill="none" xmlns="http://www.w3.org/2000/svg">
<path d="M3.50024 7.99992H2.83358V13.3333C2.83358 14.0693 3.43091 14.6666 4.16691 14.6666H7.50024V7.99992H4.16691H3.50024ZM12.1669 7.99992H8.83358V14.6666H12.1669C12.9029 14.6666 13.5002 14.0693 13.5002 13.3333V7.99992H12.8336H12.1669ZM12.6942 4.66659C12.7816 4.39259 12.8336 4.06392 12.8336 3.66659C12.8336 2.37992 11.7869 1.33325 10.5002 1.33325C9.41891 1.33325 8.69691 2.32125 8.23091 3.38992C7.77158 2.37992 7.01291 1.33325 5.83358 1.33325C4.54691 1.33325 3.50024 2.37992 3.50024 3.66659C3.50024 4.06392 3.55291 4.39259 3.63958 4.66659H1.50024V7.33325H7.50024V5.99992H8.16691H8.83358V6.06059V7.33325H14.8336V4.66659H12.6942ZM4.83358 3.66659C4.83358 3.11525 5.28224 2.66659 5.83358 2.66659C6.42558 2.66659 6.97624 3.68325 7.29891 4.66659H5.50024C5.25091 4.66659 4.83358 4.66659 4.83358 3.66659ZM10.5002 2.66659C11.0516 2.66659 11.5002 3.11525 11.5002 3.66659C11.5002 4.66659 11.0829 4.66659 10.8336 4.66659H9.18224C9.52224 3.61592 10.0162 2.66659 10.5002 2.66659Z" fill="#FFED49"/>
</svg>
