<!-- <svg width="25" height="24" viewBox="0 0 25 24" fill="none" xmlns="http://www.w3.org/2000/svg">
<g clip-path="url(#clip0_468_10087)">
<path d="M9.53635 8.94312V15.0574C9.53635 15.4955 9.74372 15.8288 10.1586 16.0574C10.5734 16.2859 10.9783 16.2669 11.3734 16.0002L16.2919 12.9717C16.6672 12.7431 16.8548 12.4193 16.8548 12.0002C16.8548 11.5812 16.6672 11.2574 16.2919 11.0288L11.3734 8.00022C10.9783 7.73356 10.5734 7.71451 10.1586 7.94309C9.74372 8.17165 9.53635 8.50499 9.53635 8.94312ZM12.4993 23.4288C10.8598 23.4288 9.31907 23.1286 7.87709 22.5282C6.43512 21.9286 5.18079 21.1145 4.11412 20.086C3.04746 19.0574 2.20322 17.8478 1.58139 16.4574C0.958769 15.0669 0.647461 13.5812 0.647461 12.0002C0.647461 10.4193 0.958769 8.93352 1.58139 7.54308C2.20322 6.15261 3.04746 4.94309 4.11412 3.91451C5.18079 2.88594 6.43512 2.07146 7.87709 1.47108C9.31907 0.871461 10.8598 0.571655 12.4993 0.571655C14.1388 0.571655 15.6795 0.871461 17.1215 1.47108C18.5635 2.07146 19.8179 2.88594 20.8845 3.91451C21.9512 4.94309 22.7954 6.15261 23.4172 7.54308C24.0398 8.93352 24.3512 10.4193 24.3512 12.0002C24.3512 13.5812 24.0398 15.0669 23.4172 16.4574C22.7954 17.8478 21.9512 19.0574 20.8845 20.086C19.8179 21.1145 18.5635 21.9286 17.1215 22.5282C15.6795 23.1286 14.1388 23.4288 12.4993 23.4288Z" fill="#0B0B10"/>
</g>
<defs>
<clipPath id="clip0_468_10087">
<rect width="24" height="24" fill="white" transform="translate(0.5)"/>
</clipPath>
</defs>
</svg> -->
<svg xmlns="http://www.w3.org/2000/svg" fill="none" viewBox="0 0 25 24"><g clip-path="url(#a)"><path fill="#0B0B10" d="M9.536 8.943v6.114c0 .438.208.772.623 1 .414.229.82.21 1.214-.057l4.919-3.028c.375-.229.563-.553.563-.972 0-.419-.188-.743-.563-.971L11.373 8c-.395-.266-.8-.285-1.214-.057-.415.229-.623.562-.623 1zM12.5 23.43c-1.64 0-3.18-.3-4.622-.9a11.996 11.996 0 01-3.763-2.443 11.52 11.52 0 01-2.533-3.629A10.781 10.781 0 01.647 12c0-1.58.312-3.066.934-4.457a11.52 11.52 0 012.533-3.628A12.011 12.011 0 017.877 1.47c1.442-.6 2.983-.9 4.622-.9 1.64 0 3.18.3 4.623.9 1.442.6 2.696 1.415 3.762 2.444a11.519 11.519 0 012.533 3.628c.623 1.39.934 2.876.934 4.457s-.311 3.067-.934 4.457a11.52 11.52 0 01-2.533 3.629 11.995 11.995 0 01-3.762 2.442c-1.442.6-2.983.9-4.623.9z"/></g><defs><clipPath id="a"><path fill="#fff" d="M0 0h24v24H0z" transform="translate(.5)"/></clipPath></defs></svg>