<svg width="41" height="42" viewBox="0 0 41 42" fill="none" xmlns="http://www.w3.org/2000/svg">
<g clip-path="url(#clip0_3717_10534)">
<path d="M0 10.8172V15.3056H6.40967L0 10.8172ZM5.31178 35.8056H14.8056V29.1579L5.31178 35.8056ZM26.1944 29.159V35.8056H35.6871L26.1944 29.159ZM0 26.6944V31.1828L6.41194 26.6944H0ZM35.6894 6.19444H26.1944V12.8421L35.6894 6.19444ZM41 31.1839V26.6944H34.5869L41 31.1839ZM41 15.3056V10.8172L34.5892 15.3056H41ZM14.8056 6.19444H5.31178L14.8056 12.8421V6.19444Z" fill="#00247D"/>
<path d="M28.6325 26.6944L39.6934 34.44C40.2299 33.8945 40.6137 33.2077 40.8209 32.4481L32.6039 26.6944H28.6325ZM14.8064 26.6944H12.3681L1.30833 34.4389C1.90169 35.0425 2.66247 35.4741 3.51549 35.6746L14.8064 27.7684V26.6944ZM26.1953 15.3056H28.6337L39.6934 7.56111C39.1001 6.9575 38.3404 6.52586 37.4874 6.32542L26.1953 14.2316V15.3056ZM12.3681 15.3056L1.30833 7.56111C0.77191 8.10778 0.388104 8.79339 0.179688 9.55303L8.39677 15.3056H12.3681Z" fill="#CF1B2B"/>
<path d="M41 24.4167H23.9167V35.8056H26.1944V29.159L35.6871 35.8056H36.4444C37.7166 35.8056 38.8657 35.2805 39.6926 34.44L28.6317 26.6944H32.603L40.8201 32.4481C40.926 32.0643 41 31.6668 41 31.25V31.1839L34.5869 26.6944H41V24.4167ZM0 24.4167V26.6944H6.41194L0 31.1828V31.25C0 32.4925 0.499972 33.6166 1.30744 34.4389L12.3672 26.6944H14.8056V27.7684L3.51461 35.6734C3.84944 35.7532 4.19567 35.8056 4.55556 35.8056H5.31178L14.8056 29.1579V35.8056H17.0833V24.4167H0ZM41 10.75C41 9.50747 40.5 8.38339 39.6926 7.56111L28.6328 15.3056H26.1944V14.2316L37.4865 6.32542C37.1506 6.24683 36.8043 6.19444 36.4444 6.19444H35.6894L26.1944 12.8421V6.19444H23.9167V17.5833H41V15.3056H34.5892L41 10.8172V10.75ZM14.8056 6.19444V12.8421L5.31178 6.19444H4.55556C3.28228 6.19444 2.13428 6.71947 1.30744 7.56111L12.3672 15.3056H8.39589L0.178806 9.55303C0.0740278 9.93683 0 10.3332 0 10.75V10.8172L6.40967 15.3056H0V17.5833H17.0833V6.19444H14.8056Z" fill="#EEEEEE"/>
<path d="M23.9167 17.5833V6.19444H17.0833V17.5833H0V24.4167H17.0833V35.8056H23.9167V24.4167H41V17.5833H23.9167Z" fill="#CF1B2B"/>
</g>
<defs>
<clipPath id="clip0_3717_10534">
<rect width="41" height="41" fill="white" transform="translate(0 0.5)"/>
</clipPath>
</defs>
</svg>
